<svg width="20" height="21" viewBox="0 0 20 21" fill="none" xmlns="http://www.w3.org/2000/svg">
<g id="Group">
<path id="Vector" d="M10 10C12.5773 10 14.6667 7.91068 14.6667 5.33335C14.6667 2.75602 12.5773 0.666687 10 0.666687C7.42267 0.666687 5.33334 2.75602 5.33334 5.33335C5.33334 7.91068 7.42267 10 10 10Z" stroke="#3A3A3A"/>
<path id="Vector_2" d="M19.3333 18.1667V19.3334C19.3333 19.6428 19.2104 19.9395 18.9916 20.1583C18.7728 20.3771 18.4761 20.5 18.1667 20.5H1.83334C1.52392 20.5 1.22717 20.3771 1.00838 20.1583C0.789588 19.9395 0.666672 19.6428 0.666672 19.3334V18.1667C0.666672 16.3102 1.40417 14.5297 2.71692 13.2169C4.02968 11.9042 5.81016 11.1667 7.66667 11.1667H12.3333C14.1899 11.1667 15.9703 11.9042 17.2831 13.2169C18.5958 14.5297 19.3333 16.3102 19.3333 18.1667Z" stroke="#3A3A3A"/>
</g>
</svg>
